<mxfile host="app.diagrams.net" modified="2021-04-17T06:41:39.723Z" agent="5.0 (Windows NT 10.0; Win64; x64) AppleWebKit/537.36 (KHTML, like Gecko) Chrome/90.0.4430.72 Safari/537.36" etag="UmA2AZcmgGrcDr-Dk_n6" version="14.5.7" type="github">
  <diagram id="C5RBs43oDa-KdzZeNtuy" name="Page-1">
    <mxGraphModel dx="1483" dy="836" grid="1" gridSize="10" guides="1" tooltips="1" connect="1" arrows="1" fold="1" page="1" pageScale="1" pageWidth="827" pageHeight="1169" math="0" shadow="0">
      <root>
        <mxCell id="WIyWlLk6GJQsqaUBKTNV-0" />
        <mxCell id="WIyWlLk6GJQsqaUBKTNV-1" parent="WIyWlLk6GJQsqaUBKTNV-0" />
        <mxCell id="cvyIOPh3GwnWPAFgHhHW-3" value="" style="edgeStyle=orthogonalEdgeStyle;rounded=0;orthogonalLoop=1;jettySize=auto;html=1;" edge="1" parent="WIyWlLk6GJQsqaUBKTNV-1" source="WIyWlLk6GJQsqaUBKTNV-3" target="cvyIOPh3GwnWPAFgHhHW-0">
          <mxGeometry relative="1" as="geometry" />
        </mxCell>
        <mxCell id="WIyWlLk6GJQsqaUBKTNV-3" value="运行代码/初始化" style="rounded=1;whiteSpace=wrap;html=1;fontSize=12;glass=0;strokeWidth=1;shadow=0;" parent="WIyWlLk6GJQsqaUBKTNV-1" vertex="1">
          <mxGeometry x="283" y="15" width="120" height="40" as="geometry" />
        </mxCell>
        <mxCell id="WIyWlLk6GJQsqaUBKTNV-5" value="No" style="edgeStyle=orthogonalEdgeStyle;rounded=0;html=1;jettySize=auto;orthogonalLoop=1;fontSize=11;endArrow=block;endFill=0;endSize=8;strokeWidth=1;shadow=0;labelBackgroundColor=none;entryX=1;entryY=0.5;entryDx=0;entryDy=0;" parent="WIyWlLk6GJQsqaUBKTNV-1" source="WIyWlLk6GJQsqaUBKTNV-6" target="cvyIOPh3GwnWPAFgHhHW-0" edge="1">
          <mxGeometry x="-0.0179" y="10" relative="1" as="geometry">
            <mxPoint as="offset" />
            <mxPoint x="473" y="195" as="targetPoint" />
            <Array as="points">
              <mxPoint x="460" y="260" />
              <mxPoint x="460" y="135" />
            </Array>
          </mxGeometry>
        </mxCell>
        <mxCell id="cvyIOPh3GwnWPAFgHhHW-9" value="" style="edgeStyle=orthogonalEdgeStyle;rounded=0;orthogonalLoop=1;jettySize=auto;html=1;" edge="1" parent="WIyWlLk6GJQsqaUBKTNV-1" source="WIyWlLk6GJQsqaUBKTNV-6" target="cvyIOPh3GwnWPAFgHhHW-8">
          <mxGeometry relative="1" as="geometry" />
        </mxCell>
        <mxCell id="cvyIOPh3GwnWPAFgHhHW-10" value="Yes&lt;br&gt;" style="edgeLabel;html=1;align=center;verticalAlign=middle;resizable=0;points=[];" vertex="1" connectable="0" parent="cvyIOPh3GwnWPAFgHhHW-9">
          <mxGeometry x="-0.3524" relative="1" as="geometry">
            <mxPoint as="offset" />
          </mxGeometry>
        </mxCell>
        <mxCell id="WIyWlLk6GJQsqaUBKTNV-6" value="是否合法" style="rhombus;whiteSpace=wrap;html=1;shadow=0;fontFamily=Helvetica;fontSize=12;align=center;strokeWidth=1;spacing=6;spacingTop=-4;" parent="WIyWlLk6GJQsqaUBKTNV-1" vertex="1">
          <mxGeometry x="293" y="220" width="100" height="80" as="geometry" />
        </mxCell>
        <mxCell id="cvyIOPh3GwnWPAFgHhHW-22" value="" style="edgeStyle=orthogonalEdgeStyle;rounded=0;orthogonalLoop=1;jettySize=auto;html=1;" edge="1" parent="WIyWlLk6GJQsqaUBKTNV-1" source="WIyWlLk6GJQsqaUBKTNV-11" target="cvyIOPh3GwnWPAFgHhHW-18">
          <mxGeometry relative="1" as="geometry" />
        </mxCell>
        <mxCell id="WIyWlLk6GJQsqaUBKTNV-11" value="计算胜负/点球" style="rounded=1;whiteSpace=wrap;html=1;fontSize=12;glass=0;strokeWidth=1;shadow=0;" parent="WIyWlLk6GJQsqaUBKTNV-1" vertex="1">
          <mxGeometry x="283" y="840" width="120" height="40" as="geometry" />
        </mxCell>
        <mxCell id="cvyIOPh3GwnWPAFgHhHW-4" value="" style="edgeStyle=orthogonalEdgeStyle;rounded=0;orthogonalLoop=1;jettySize=auto;html=1;" edge="1" parent="WIyWlLk6GJQsqaUBKTNV-1" source="cvyIOPh3GwnWPAFgHhHW-0" target="WIyWlLk6GJQsqaUBKTNV-6">
          <mxGeometry relative="1" as="geometry" />
        </mxCell>
        <mxCell id="cvyIOPh3GwnWPAFgHhHW-0" value="输入队伍数目" style="rounded=1;whiteSpace=wrap;html=1;fontSize=12;glass=0;strokeWidth=1;shadow=0;" vertex="1" parent="WIyWlLk6GJQsqaUBKTNV-1">
          <mxGeometry x="283" y="115" width="120" height="40" as="geometry" />
        </mxCell>
        <mxCell id="cvyIOPh3GwnWPAFgHhHW-5" value="No" style="edgeStyle=orthogonalEdgeStyle;rounded=0;html=1;jettySize=auto;orthogonalLoop=1;fontSize=11;endArrow=block;endFill=0;endSize=8;strokeWidth=1;shadow=0;labelBackgroundColor=none;entryX=1;entryY=0.5;entryDx=0;entryDy=0;" edge="1" parent="WIyWlLk6GJQsqaUBKTNV-1" source="cvyIOPh3GwnWPAFgHhHW-6" target="cvyIOPh3GwnWPAFgHhHW-8">
          <mxGeometry y="10" relative="1" as="geometry">
            <mxPoint as="offset" />
            <mxPoint x="473" y="450" as="targetPoint" />
            <Array as="points">
              <mxPoint x="460" y="520" />
              <mxPoint x="460" y="390" />
            </Array>
          </mxGeometry>
        </mxCell>
        <mxCell id="cvyIOPh3GwnWPAFgHhHW-13" value="" style="edgeStyle=orthogonalEdgeStyle;rounded=0;orthogonalLoop=1;jettySize=auto;html=1;" edge="1" parent="WIyWlLk6GJQsqaUBKTNV-1" source="cvyIOPh3GwnWPAFgHhHW-6" target="cvyIOPh3GwnWPAFgHhHW-11">
          <mxGeometry relative="1" as="geometry" />
        </mxCell>
        <mxCell id="cvyIOPh3GwnWPAFgHhHW-6" value="是否合法" style="rhombus;whiteSpace=wrap;html=1;shadow=0;fontFamily=Helvetica;fontSize=12;align=center;strokeWidth=1;spacing=6;spacingTop=-4;" vertex="1" parent="WIyWlLk6GJQsqaUBKTNV-1">
          <mxGeometry x="293" y="480" width="100" height="80" as="geometry" />
        </mxCell>
        <mxCell id="cvyIOPh3GwnWPAFgHhHW-7" value="" style="edgeStyle=orthogonalEdgeStyle;rounded=0;orthogonalLoop=1;jettySize=auto;html=1;" edge="1" parent="WIyWlLk6GJQsqaUBKTNV-1" source="cvyIOPh3GwnWPAFgHhHW-8" target="cvyIOPh3GwnWPAFgHhHW-6">
          <mxGeometry relative="1" as="geometry" />
        </mxCell>
        <mxCell id="cvyIOPh3GwnWPAFgHhHW-8" value="输入队伍数目" style="rounded=1;whiteSpace=wrap;html=1;fontSize=12;glass=0;strokeWidth=1;shadow=0;" vertex="1" parent="WIyWlLk6GJQsqaUBKTNV-1">
          <mxGeometry x="283" y="370" width="120" height="40" as="geometry" />
        </mxCell>
        <mxCell id="cvyIOPh3GwnWPAFgHhHW-14" value="" style="edgeStyle=orthogonalEdgeStyle;rounded=0;orthogonalLoop=1;jettySize=auto;html=1;" edge="1" parent="WIyWlLk6GJQsqaUBKTNV-1" source="cvyIOPh3GwnWPAFgHhHW-11" target="cvyIOPh3GwnWPAFgHhHW-12">
          <mxGeometry relative="1" as="geometry" />
        </mxCell>
        <mxCell id="cvyIOPh3GwnWPAFgHhHW-11" value="初始化GUI/自动分组" style="rounded=1;whiteSpace=wrap;html=1;fontSize=12;glass=0;strokeWidth=1;shadow=0;" vertex="1" parent="WIyWlLk6GJQsqaUBKTNV-1">
          <mxGeometry x="283" y="620" width="120" height="40" as="geometry" />
        </mxCell>
        <mxCell id="cvyIOPh3GwnWPAFgHhHW-16" value="" style="edgeStyle=orthogonalEdgeStyle;rounded=0;orthogonalLoop=1;jettySize=auto;html=1;entryX=1;entryY=0.5;entryDx=0;entryDy=0;" edge="1" parent="WIyWlLk6GJQsqaUBKTNV-1" source="cvyIOPh3GwnWPAFgHhHW-12" target="cvyIOPh3GwnWPAFgHhHW-11">
          <mxGeometry relative="1" as="geometry">
            <mxPoint x="462.9999999999998" y="749.9999999999998" as="targetPoint" />
            <Array as="points">
              <mxPoint x="460" y="750" />
              <mxPoint x="460" y="640" />
            </Array>
          </mxGeometry>
        </mxCell>
        <mxCell id="cvyIOPh3GwnWPAFgHhHW-17" value="No" style="edgeLabel;html=1;align=center;verticalAlign=middle;resizable=0;points=[];" vertex="1" connectable="0" parent="cvyIOPh3GwnWPAFgHhHW-16">
          <mxGeometry x="0.188" y="-1" relative="1" as="geometry">
            <mxPoint as="offset" />
          </mxGeometry>
        </mxCell>
        <mxCell id="cvyIOPh3GwnWPAFgHhHW-21" value="" style="edgeStyle=orthogonalEdgeStyle;rounded=0;orthogonalLoop=1;jettySize=auto;html=1;" edge="1" parent="WIyWlLk6GJQsqaUBKTNV-1" source="cvyIOPh3GwnWPAFgHhHW-12" target="WIyWlLk6GJQsqaUBKTNV-11">
          <mxGeometry relative="1" as="geometry" />
        </mxCell>
        <mxCell id="cvyIOPh3GwnWPAFgHhHW-12" value="是否有比分录入" style="rhombus;whiteSpace=wrap;html=1;shadow=0;fontFamily=Helvetica;fontSize=12;align=center;strokeWidth=1;spacing=6;spacingTop=-4;" vertex="1" parent="WIyWlLk6GJQsqaUBKTNV-1">
          <mxGeometry x="293" y="710" width="100" height="80" as="geometry" />
        </mxCell>
        <mxCell id="cvyIOPh3GwnWPAFgHhHW-24" value="" style="edgeStyle=orthogonalEdgeStyle;rounded=0;orthogonalLoop=1;jettySize=auto;html=1;entryX=0;entryY=0.5;entryDx=0;entryDy=0;" edge="1" parent="WIyWlLk6GJQsqaUBKTNV-1" source="cvyIOPh3GwnWPAFgHhHW-18" target="cvyIOPh3GwnWPAFgHhHW-12">
          <mxGeometry relative="1" as="geometry">
            <mxPoint x="283" y="740" as="targetPoint" />
            <Array as="points">
              <mxPoint x="190" y="940" />
              <mxPoint x="190" y="750" />
            </Array>
          </mxGeometry>
        </mxCell>
        <mxCell id="cvyIOPh3GwnWPAFgHhHW-18" value="显示" style="rounded=1;whiteSpace=wrap;html=1;fontSize=12;glass=0;strokeWidth=1;shadow=0;" vertex="1" parent="WIyWlLk6GJQsqaUBKTNV-1">
          <mxGeometry x="283" y="920" width="120" height="40" as="geometry" />
        </mxCell>
      </root>
    </mxGraphModel>
  </diagram>
</mxfile>
